<svg id="Layer_1" height="512" viewBox="0 0 512 512" width="512" xmlns="http://www.w3.org/2000/svg" data-name="Layer 1"><path d="m287.889 146.459a13.2 13.2 0 0 1 11.8 14.47v31.16a7.015 7.015 0 1 1 -14.03 0l.04 2.54-1.75 63.71a3.959 3.959 0 0 1 -3.93 3.57h-23.45a3.94 3.94 0 0 1 -3.92-3.56l-1.88-63.72-.05-2.73a7.127 7.127 0 0 1 -6.92 7.2h-.08a7 7 0 0 1 -7.01-7s-.07-32.06-.07-32.5a13.2 13.2 0 0 1 13.2-13.21h10.53l7.83 14.38 8.24-14.37s11.01.02 11.45.06z" fill="#4689d3"/><path d="m247.709 192.1s-.07-32.06-.07-32.5a13.192 13.192 0 0 1 12.743-13.186l-.013-.024h-10.53a13.2 13.2 0 0 0 -13.2 13.21c0 .44.07 32.5.07 32.5a7 7 0 0 0 7.009 7h.081a6.89 6.89 0 0 0 5.383-2.716 6.955 6.955 0 0 1 -1.473-4.284z" fill="#5fa8ed"/><path d="m263.649 258.349-1.631-55.284-.092-3.108a3.017 3.017 0 0 0 -4.643-2.451l-2.483 1.594h-.081c-.189 0-.378-.007-.564-.022a2.983 2.983 0 0 0 -3.163 3.1l1.658 56.176a3.94 3.94 0 0 0 3.92 3.56h4.112a3.054 3.054 0 0 0 2.974-3.5z" fill="#5fa8ed"/><path d="m210.429 177.839a13.2 13.2 0 0 1 11.8 14.46v31.17a7.015 7.015 0 0 1 -14.03 0l.04 2.54-1.76 63.7a3.936 3.936 0 0 1 -3.93 3.57h-23.44a3.95 3.95 0 0 1 -3.93-3.56l-1.88-63.71-.04-2.73a7.135 7.135 0 0 1 -6.93 7.2h-.08a7.012 7.012 0 0 1 -7.01-7.01s-.06-32.05-.06-32.5a13.2 13.2 0 0 1 13.2-13.2h10.521l7.84 14.38 8.24-14.38s10.999.02 11.449.07z" fill="#4689d3"/><path d="m187.338 289.719-1.405-47.619a14.692 14.692 0 0 0 -3.663-9.457 5.479 5.479 0 0 0 -3.782-2.176h-.08a6.98 6.98 0 0 1 -3.852-1.154l1.782 60.4a3.95 3.95 0 0 0 3.93 3.56h11a3.95 3.95 0 0 1 -3.93-3.554z" fill="#5fa8ed"/><path d="m170.239 223.469s-.06-32.05-.06-32.5a13.19 13.19 0 0 1 12.733-13.176l-.013-.024h-10.52a13.2 13.2 0 0 0 -13.2 13.2c0 .45.06 32.5.06 32.5a7.012 7.012 0 0 0 7.01 7.01h.08a6.9 6.9 0 0 0 5.388-2.715 6.972 6.972 0 0 1 -1.478-4.295z" fill="#5fa8ed"/><path d="m131.009 146.459a13.2 13.2 0 0 1 11.8 14.47v31.16a7.015 7.015 0 1 1 -14.03 0l.04 2.54-1.75 63.71a3.959 3.959 0 0 1 -3.93 3.57h-23.439a3.95 3.95 0 0 1 -3.93-3.56l-1.88-63.72-.04-2.73a7.135 7.135 0 0 1 -6.93 7.2h-.08a7 7 0 0 1 -7.01-7s-.07-32.06-.07-32.5a13.2 13.2 0 0 1 13.2-13.21h10.53l7.83 14.38 8.25-14.37s10.999.02 11.439.06z" fill="#4689d3"/><path d="m90.829 192.1s-.071-32.06-.071-32.5a13.193 13.193 0 0 1 12.742-13.187l-.012-.024h-10.529a13.2 13.2 0 0 0 -13.2 13.21c0 .44.071 32.5.071 32.5a7 7 0 0 0 7.01 7h.08a6.905 6.905 0 0 0 5.386-2.712 6.955 6.955 0 0 1 -1.477-4.287z" fill="#5fa8ed"/><path d="m106.769 258.349-1.405-47.617a14.692 14.692 0 0 0 -3.663-9.457 5.479 5.479 0 0 0 -3.782-2.176h-.08a6.978 6.978 0 0 1 -3.852-1.154l1.782 60.4a3.949 3.949 0 0 0 3.93 3.56h11a3.949 3.949 0 0 1 -3.93-3.556z" fill="#5fa8ed"/><path d="m484.259 426.129a39.991 39.991 0 0 1 0 56.56l-1.87 1.87a39.991 39.991 0 0 1 -56.56 0l-51.33-51.33a41.316 41.316 0 0 1 58.43-58.43z" fill="#4a5160"/><path d="m435.829 474.56-51.329-51.331a41.312 41.312 0 0 1 -4.566-53 41.3 41.3 0 0 0 -5.434 63l51.33 51.331a39.993 39.993 0 0 0 56.56 0l1.869-1.871a39.935 39.935 0 0 0 3.77-4.36 39.993 39.993 0 0 1 -52.2-3.769z" fill="#6d7486"/><path d="m319.569 27.709v51.02h-51.03l24.89-24.88z" fill="#50dd5a"/><path d="m280.459 106.339v5.09a12.705 12.705 0 0 1 -25.41 0v-5.09a12.705 12.705 0 0 1 25.41 0z" fill="#f9b691"/><path d="m203 137.719v5.08a12.71 12.71 0 1 1 -25.42 0v-5.08a12.71 12.71 0 0 1 25.42 0z" fill="#ffd39f"/><path d="m123.579 106.339v5.09a12.705 12.705 0 0 1 -25.41 0v-5.09a12.705 12.705 0 0 1 25.41 0z" fill="#f9b691"/><path d="m91.749 282.159-24.75 24.75-26.27 26.27v-51.02z" fill="#50dd5a"/><g fill="#284268"><path d="m70.086 69.785a164.107 164.107 0 0 1 214.304-15.385l-20.09 20.092a6 6 0 0 0 4.242 10.243h51.024a6 6 0 0 0 6-6v-51.025a6 6 0 0 0 -10.242-4.242l-22.37 22.37a176.1 176.1 0 0 0 -280.287 170.425 6 6 0 1 0 11.82-2.066 164.4 164.4 0 0 1 45.599-144.412zm243.479 2.95h-30.539l30.539-30.535z"/><path d="m190.291 161.509a18.728 18.728 0 0 0 18.709-18.709v-5.08a18.707 18.707 0 1 0 -37.413 0v5.08a18.728 18.728 0 0 0 18.704 18.709zm-6.706-23.789a6.707 6.707 0 1 1 13.413 0v5.08a6.707 6.707 0 1 1 -13.413 0z"/><path d="m223.972 178.834a19.076 19.076 0 0 0 -12.94-6.964c-.346-.035-.739-.075-12.038-.1h-.013a6 6 0 0 0 -5.2 3.014l-2.907 5.068-2.7-4.954a6 6 0 0 0 -5.269-3.129h-10.526a19.226 19.226 0 0 0 -19.2 19.2c0 .444.067 32.5.067 32.5a13.025 13.025 0 0 0 13.009 13.006h.148q.612-.006 1.206-.071l1.582 53.492c0 .137.012.273.025.409a9.912 9.912 0 0 0 9.9 8.974h23.445a9.9 9.9 0 0 0 9.9-8.994c.013-.136.022-.272.025-.409l1.474-53.457q.622.06 1.26.06a13.03 13.03 0 0 0 13.016-13.016v-30.882a19.076 19.076 0 0 0 -4.264-13.747zm-7.713 12.866-.03 31.767a1.016 1.016 0 0 1 -2.03.06v-.156a6 6 0 0 0 -6-5.9h-.05a6 6 0 0 0 -5.951 6l-1.651 63.816h-19.432l-1.855-64.1a6 6 0 0 0 -6-5.911h-.046a6 6 0 0 0 -5.955 6 1.154 1.154 0 0 1 -1.008 1.2 1.013 1.013 0 0 1 -1.01-1.02s-.067-32-.067-32.486a7.212 7.212 0 0 1 7.2-7.2h6.959l6.128 11.246a6 6 0 0 0 10.472.114l6.512-11.35c3.31.011 6.677.028 7.531.046a7.2 7.2 0 0 1 6.277 7.873z"/><path d="m267.755 130.132a18.728 18.728 0 0 0 18.706-18.707v-5.082a18.707 18.707 0 1 0 -37.413 0v5.082a18.728 18.728 0 0 0 18.707 18.707zm-6.707-23.789a6.707 6.707 0 1 1 13.413 0v5.082a6.707 6.707 0 1 1 -13.413 0z"/><path d="m488.5 421.883-51.328-51.328a47.311 47.311 0 0 0 -62.062-4.231l-53.021-53.024a175.986 175.986 0 0 0 41.793-164.4 6 6 0 0 0 -11.619 3 164 164 0 0 1 -42.827 157.225 164.082 164.082 0 0 1 -232.047 0c-.685-.685-1.361-1.389-2.037-2.09l20.641-20.635a6 6 0 0 0 -4.242-10.243h-51.024a6 6 0 0 0 -6 6v51.024a6 6 0 0 0 10.242 4.243l21.9-21.9c.678.7 1.353 1.406 2.038 2.091a176.064 176.064 0 0 0 244.693 4.168l52.952 52.952a47.3 47.3 0 0 0 3.7 62.737l51.331 51.328a46.052 46.052 0 0 0 65.053 0l1.863-1.862a46.054 46.054 0 0 0 .001-65.055zm-441.773-133.724h30.539l-30.539 30.541zm433.288 190.292-1.864 1.863a34.039 34.039 0 0 1 -48.084 0l-51.328-51.328a35.317 35.317 0 1 1 49.947-49.945l51.328 51.328a34.039 34.039 0 0 1 .001 48.082z"/><path d="m288.489 140.493c-.343-.035-.734-.075-12.032-.1h-.013a6 6 0 0 0 -5.2 3.015l-2.907 5.067-2.7-4.953a6 6 0 0 0 -5.269-3.129h-10.527a19.2 19.2 0 0 0 -19.2 19.2c0 .445.067 32.5.067 32.5a13.024 13.024 0 0 0 13.007 13h.15q.611-.006 1.207-.071l1.581 53.492c0 .136.013.271.026.406a9.909 9.909 0 0 0 9.9 8.977h23.444a9.906 9.906 0 0 0 9.9-8.994c.013-.136.021-.272.025-.409l1.474-53.457q.621.06 1.259.06a13.029 13.029 0 0 0 13.016-13.015v-30.882a19.226 19.226 0 0 0 -17.208-20.707zm5.234 19.83-.031 31.768a1.016 1.016 0 0 1 -2.03.061v-.16a6 6 0 0 0 -6-5.9h-.051a6 6 0 0 0 -5.95 6l-1.65 63.815h-19.432l-1.856-64.1a6 6 0 0 0 -6-5.908h-.047a6 6 0 0 0 -5.954 6 1.154 1.154 0 0 1 -1.008 1.205 1.013 1.013 0 0 1 -1.01-1.02s-.067-32-.067-32.486a7.2 7.2 0 0 1 7.2-7.2h6.963l6.128 11.245a6 6 0 0 0 5.2 3.129 5.91 5.91 0 0 0 5.269-3.015l6.511-11.35c3.31.012 6.676.028 7.532.046a7.212 7.212 0 0 1 6.283 7.87z"/><path d="m110.876 130.132a18.728 18.728 0 0 0 18.706-18.707v-5.082a18.707 18.707 0 1 0 -37.413 0v5.082a18.728 18.728 0 0 0 18.707 18.707zm-6.707-23.789a6.707 6.707 0 1 1 13.413 0v5.082a6.707 6.707 0 1 1 -13.413 0z"/><path d="m131.61 140.493c-.343-.035-.734-.075-12.031-.1h-.013a6 6 0 0 0 -5.2 3.014l-2.907 5.068-2.7-4.953a6 6 0 0 0 -5.269-3.129h-10.528a19.2 19.2 0 0 0 -19.2 19.188c0 .444.059 29.244.066 32.516a13.024 13.024 0 0 0 13.007 13h.15q.611-.006 1.207-.071l1.581 53.492c0 .137.013.273.026.409a9.911 9.911 0 0 0 9.9 8.974h23.441a9.9 9.9 0 0 0 9.9-8.994c.013-.136.022-.272.025-.409l1.474-53.457q.623.06 1.26.06a13.029 13.029 0 0 0 13.015-13.015v-30.886a19.224 19.224 0 0 0 -17.204-20.707zm5.234 19.83-.031 31.768a1.016 1.016 0 0 1 -2.03.061v-.16a6 6 0 0 0 -6-5.9h-.051a6 6 0 0 0 -5.95 6l-1.65 63.815h-19.432l-1.856-64.1a6 6 0 0 0 -6-5.908h-.044a6 6 0 0 0 -5.954 6 1.154 1.154 0 0 1 -1.008 1.205 1.013 1.013 0 0 1 -1.01-1.02s-.067-31.854-.066-32.487a7.2 7.2 0 0 1 7.2-7.2h6.961l6.128 11.245a6 6 0 0 0 5.2 3.129h.065a6 6 0 0 0 5.2-3.014l6.512-11.351c3.512.012 6.7.029 7.531.046a7.2 7.2 0 0 1 6.277 7.873z"/></g></svg>